# xmcd
#
# Track frame offsets:
# 150
# 21768
# 43974
# 61808
# 76010
# 97835
# 119130
# 143195
# 169432
# 183464
# 209385
# 233463
#
# Disc length: 3504 seconds
#
# Revision: 0
# Processed by: cddbd v1.4PL0 Copyright (c) Steve Scherf et al.
# Submitted via: Audion 3.0.2 (http://www.panic.com/audion/)
#
DISCID=a00dae0c
DTITLE=Mike Tebo Band - MTB
DYEAR=1900
DGENRE=
TTITLE0=Nothing for Nothin
TTITLE1=Try to forget you
TTITLE2=Maybe this time
TTITLE3=Perseverance
TTITLE4=Peace of mind
TTITLE5=Artisan of Love
TTITLE6=Blue eyes
TTITLE7=Feeling too
TTITLE8=Destiny
TTITLE9=Beautiful way
TTITLE10=Just the Truth
TTITLE11=Get out of my head
EXTD=
EXTT0=
EXTT1=
EXTT2=
EXTT3=
EXTT4=
EXTT5=
EXTT6=
EXTT7=
EXTT8=
EXTT9=
EXTT10=
EXTT11=
PLAYORDER=
